<?xml version="1.0" encoding="UTF-8"?>
<!DOCTYPE svg PUBLIC "-//W3C//DTD SVG 1.1//EN" "http://www.w3.org/Graphics/SVG/1.1/DTD/svg11.dtd">
<svg xmlns="http://www.w3.org/2000/svg" version="1.1" width="6600px" height="2000px" style="shape-rendering:geometricPrecision; text-rendering:geometricPrecision; image-rendering:optimizeQuality; fill-rule:evenodd; clip-rule:evenodd" xmlns:xlink="http://www.w3.org/1999/xlink">
<g><path style="opacity:0.989" fill="#000000" d="M 1825.5,99.5 C 1826.5,99.5 1827.5,99.5 1828.5,99.5C 1828.33,244.167 1828.5,388.834 1829,533.5C 1872.41,514.044 1916.25,495.544 1960.5,478C 1993.11,469.662 2025.78,469.662 2058.5,478C 2145.5,500.997 2208.34,553.164 2247,634.5C 2289.48,736.968 2284.15,836.968 2231,934.5C 2181.88,1019.84 2110.05,1076.67 2015.5,1105C 1975.72,1115.23 1935.39,1118.23 1894.5,1114C 1832.72,1108.35 1773.88,1092.18 1718,1065.5C 1717.99,789.821 1717.32,514.154 1716,238.5C 1714.75,209.248 1699.58,192.748 1670.5,189C 1655.22,186.573 1639.89,184.739 1624.5,183.5C 1624.5,171.167 1624.5,158.833 1624.5,146.5C 1693.13,137.258 1760.13,121.591 1825.5,99.5 Z M 1924.5,550.5 C 2016.67,548.479 2083.17,588.479 2124,670.5C 2146.25,722.239 2154.92,776.239 2150,832.5C 2148.28,876.099 2139.28,918.099 2123,958.5C 2087.62,1035.28 2027.78,1068.45 1943.5,1058C 1906.4,1050.87 1874.9,1033.71 1849,1006.5C 1838.39,995.271 1832.05,981.938 1830,966.5C 1828.35,836.522 1828.01,706.522 1829,576.5C 1859.37,562.117 1891.21,553.45 1924.5,550.5 Z"/></g>
<g><path style="opacity:0.995" fill="#000000" d="M 2561.5,99.5 C 2563.01,397.508 2564.18,695.841 2565,994.5C 2565.41,1008.48 2569.08,1021.48 2576,1033.5C 2584.87,1043.69 2596.04,1049.86 2609.5,1052C 2626.95,1055.2 2644.45,1057.7 2662,1059.5C 2662.5,1072.5 2662.67,1085.5 2662.5,1098.5C 2559.5,1098.5 2456.5,1098.5 2353.5,1098.5C 2353.18,1085.25 2353.51,1072.09 2354.5,1059C 2373.02,1057.56 2391.35,1054.89 2409.5,1051C 2433.9,1045.6 2447.4,1030.43 2450,1005.5C 2452.02,987.9 2453.02,970.234 2453,952.5C 2453.67,730.833 2453.67,509.167 2453,287.5C 2452.82,271.808 2452.15,256.141 2451,240.5C 2449.04,214.721 2435.54,198.888 2410.5,193C 2393.33,188.861 2376,185.694 2358.5,183.5C 2357.5,171.185 2357.17,158.851 2357.5,146.5C 2427.36,138.366 2495.36,122.699 2561.5,99.5 Z"/></g>
<g><path style="opacity:0.995" fill="#000000" d="M 5935.5,99.5 C 5937.01,397.508 5938.18,695.841 5939,994.5C 5939.41,1008.48 5943.08,1021.48 5950,1033.5C 5958.87,1043.69 5970.04,1049.86 5983.5,1052C 6000.95,1055.2 6018.45,1057.7 6036,1059.5C 6036.5,1072.5 6036.67,1085.5 6036.5,1098.5C 5933.5,1098.5 5830.5,1098.5 5727.5,1098.5C 5727.18,1085.25 5727.51,1072.09 5728.5,1059C 5747.02,1057.56 5765.35,1054.89 5783.5,1051C 5807.9,1045.6 5821.4,1030.43 5824,1005.5C 5826.02,987.9 5827.02,970.234 5827,952.5C 5827.67,730.833 5827.67,509.167 5827,287.5C 5826.82,271.808 5826.15,256.141 5825,240.5C 5823.04,214.721 5809.54,198.888 5784.5,193C 5767.33,188.861 5750,185.694 5732.5,183.5C 5731.5,171.185 5731.17,158.851 5731.5,146.5C 5801.36,138.366 5869.36,122.699 5935.5,99.5 Z"/></g>
<g><path style="opacity:0.989" fill="#000000" d="M 597.5,175.5 C 659.944,174.996 721.944,179.996 783.5,190.5C 815.198,196.061 846.865,201.727 878.5,207.5C 885.285,280.11 894.285,352.443 905.5,424.5C 890.527,427.628 875.527,430.628 860.5,433.5C 851.256,397.593 837.422,363.593 819,331.5C 790.364,286.063 749.864,256.563 697.5,243C 636.799,227.221 575.466,224.221 513.5,234C 401.057,254.958 321.223,317.458 274,421.5C 250.156,477.713 237.156,536.379 235,597.5C 230.914,676.15 241.248,752.817 266,827.5C 322.657,981.779 433.324,1061.45 598,1066.5C 642.056,1067.09 684.222,1058.59 724.5,1041C 754.66,1026.19 780.827,1006.03 803,980.5C 817.309,963.213 830.642,945.213 843,926.5C 856.092,905.321 868.426,883.654 880,861.5C 893.076,866.192 906.242,870.692 919.5,875C 920.516,875.519 921.182,876.353 921.5,877.5C 900.602,948.701 875.269,1018.2 845.5,1086C 779.01,1101.86 711.676,1112.53 643.5,1118C 564.423,1124.26 486.756,1116.59 410.5,1095C 283.28,1056.43 190.446,977.597 132,858.5C 89.6884,761.392 78.355,660.726 98,556.5C 132.463,398.05 223.963,286.55 372.5,222C 444.778,192.845 519.778,177.345 597.5,175.5 Z"/></g>
<g><path style="opacity:0.992" fill="#000000" d="M 3669.5,195.5 C 3801.5,195.333 3933.5,195.5 4065.5,196C 4108.78,196.802 4151.12,203.468 4192.5,216C 4290.14,251.859 4339.8,322.026 4341.5,426.5C 4341.04,500.575 4312.71,561.408 4256.5,609C 4227.76,632.046 4196.43,651.046 4162.5,666C 4216.56,755.305 4273.72,842.471 4334,927.5C 4358.2,961.385 4385.04,993.218 4414.5,1023C 4438.84,1045.42 4467,1061.26 4499,1070.5C 4497.65,1083.81 4496.15,1097.15 4494.5,1110.5C 4455.54,1109.53 4416.87,1105.7 4378.5,1099C 4330.17,1088.76 4289.67,1065.26 4257,1028.5C 4245.29,1014.45 4233.95,1000.12 4223,985.5C 4204.59,959.684 4186.92,933.351 4170,906.5C 4136.17,850.831 4101.83,795.498 4067,740.5C 4052.05,720.939 4032.22,710.106 4007.5,708C 3976.54,705.903 3945.54,705.07 3914.5,705.5C 3914.33,781.834 3914.5,858.167 3915,934.5C 3914.52,958.462 3916.86,982.129 3922,1005.5C 3929.11,1028.27 3944.27,1042.44 3967.5,1048C 3991.55,1053.53 4015.88,1057.2 4040.5,1059C 4041.49,1072.09 4041.82,1085.25 4041.5,1098.5C 3917.5,1098.5 3793.5,1098.5 3669.5,1098.5C 3669.18,1085.25 3669.51,1072.09 3670.5,1059C 3690.27,1057.07 3709.94,1054.4 3729.5,1051C 3768,1046.5 3788.83,1025 3792,986.5C 3792.96,977.189 3793.63,967.855 3794,958.5C 3794.67,751.833 3794.67,545.167 3794,338.5C 3793.77,320.874 3791.44,303.541 3787,286.5C 3782.41,270.483 3772.58,258.983 3757.5,252C 3745.85,247.421 3733.85,244.088 3721.5,242C 3704.24,239.176 3686.91,237.009 3669.5,235.5C 3669.5,222.167 3669.5,208.833 3669.5,195.5 Z M 3993.5,244.5 C 4028.14,243.472 4061.81,248.639 4094.5,260C 4154.06,283.565 4190.56,326.732 4204,389.5C 4212.14,433.054 4211.14,476.388 4201,519.5C 4191.15,555.051 4172.31,584.884 4144.5,609C 4123.94,627.451 4100.27,640.451 4073.5,648C 4052.8,653.053 4031.8,656.053 4010.5,657C 3978.5,657.5 3946.5,657.667 3914.5,657.5C 3914.33,542.166 3914.5,426.833 3915,311.5C 3914.56,297 3916.89,283 3922,269.5C 3929.98,257.747 3941.15,250.913 3955.5,249C 3968.23,246.79 3980.9,245.29 3993.5,244.5 Z"/></g>
<g><path style="opacity:0.988" fill="#000000" d="M 1298.5,471.5 C 1383.03,471.941 1442.2,510.607 1476,587.5C 1482.43,605.298 1486.43,623.631 1488,642.5C 1489.3,747.488 1489.96,852.488 1490,957.5C 1490.99,974.798 1495.99,990.798 1505,1005.5C 1517.35,1020.11 1532.85,1024.95 1551.5,1020C 1557.29,1018.74 1562.95,1017.07 1568.5,1015C 1575.08,1011.87 1581.75,1009.04 1588.5,1006.5C 1592.53,1019.41 1596.86,1032.24 1601.5,1045C 1601.36,1045.77 1601.02,1046.44 1600.5,1047C 1563.17,1069 1525.83,1091 1488.5,1113C 1485.63,1114.9 1482.46,1115.73 1479,1115.5C 1443.48,1112.75 1416.81,1096.09 1399,1065.5C 1392.63,1053.39 1387.63,1040.72 1384,1027.5C 1349.77,1051.7 1314.6,1074.54 1278.5,1096C 1262.43,1104.87 1245.43,1111.21 1227.5,1115C 1156.42,1116.72 1103.25,1086.89 1068,1025.5C 1048.06,986.654 1043.06,945.987 1053,903.5C 1063.49,870.341 1083.66,844.841 1113.5,827C 1121.68,822.412 1130.01,818.078 1138.5,814C 1196.06,793.59 1253.4,772.59 1310.5,751C 1328.07,743.547 1345.41,735.547 1362.5,727C 1369.1,723.452 1375.27,719.286 1381,714.5C 1383.57,680.443 1379.9,647.11 1370,614.5C 1347.94,555.383 1305.44,528.549 1242.5,534C 1220.1,539.115 1202.6,551.282 1190,570.5C 1186.08,577.342 1182.41,584.342 1179,591.5C 1169.69,616.722 1160.69,642.056 1152,667.5C 1142.08,683.033 1127.92,689.2 1109.5,686C 1086.17,680.68 1069.34,667.18 1059,645.5C 1051.33,626.861 1054.33,610.194 1068,595.5C 1121.98,549.572 1182.14,513.405 1248.5,487C 1265.06,481.09 1281.72,475.923 1298.5,471.5 Z M 1380.5,764.5 C 1381.67,836.332 1381.83,908.332 1381,980.5C 1349.23,1009.8 1311.73,1026.13 1268.5,1029.5C 1224.43,1027.73 1193.6,1006.73 1176,966.5C 1156.3,906.878 1174.14,862.711 1229.5,834C 1269.33,815.612 1309.33,797.612 1349.5,780C 1360.17,775.33 1370.51,770.164 1380.5,764.5 Z"/></g>
<g><path style="opacity:0.989" fill="#000000" d="M 3019.5,471.5 C 3108.58,470.439 3175.41,508.106 3220,584.5C 3240.5,621.985 3248.83,661.985 3245,704.5C 3243.8,718.014 3236.97,727.181 3224.5,732C 3211.01,735.062 3197.34,737.062 3183.5,738C 3071.65,747.121 2959.65,753.621 2847.5,757.5C 2846.18,804.917 2854.35,850.583 2872,894.5C 2902.93,963.05 2955.43,1003.88 3029.5,1017C 3075.37,1022.56 3118.37,1013.89 3158.5,991C 3179.52,978.571 3199.02,964.071 3217,947.5C 3224,957.5 3231,967.5 3238,977.5C 3238.98,978.759 3239.32,980.092 3239,981.5C 3197.88,1034.63 3146.38,1074.13 3084.5,1100C 3015.28,1124.01 2947.95,1119.35 2882.5,1086C 2815.8,1047.86 2771.63,991.69 2750,917.5C 2724.42,821.61 2733.76,729.277 2778,640.5C 2816.95,568.875 2874.12,517.708 2949.5,487C 2972.28,478.68 2995.61,473.513 3019.5,471.5 Z M 2989.5,525.5 C 3054.31,524.815 3097.15,555.148 3118,616.5C 3123.54,635.13 3125.54,654.13 3124,673.5C 3121.37,685.456 3113.87,691.622 3101.5,692C 3019.54,695.805 2937.54,697.305 2855.5,696.5C 2861.69,653.148 2877.52,613.814 2903,578.5C 2914.28,564.883 2927.11,553.05 2941.5,543C 2956.47,534.001 2972.47,528.167 2989.5,525.5 Z"/></g>
<g><path style="opacity:0.989" fill="#000000" d="M 4826.5,471.5 C 4915.58,470.439 4982.41,508.106 5027,584.5C 5047.5,621.985 5055.83,661.985 5052,704.5C 5050.8,718.014 5043.97,727.181 5031.5,732C 5018.01,735.062 5004.34,737.062 4990.5,738C 4878.65,747.121 4766.65,753.621 4654.5,757.5C 4653.18,804.917 4661.35,850.583 4679,894.5C 4709.93,963.05 4762.43,1003.88 4836.5,1017C 4882.37,1022.56 4925.37,1013.89 4965.5,991C 4986.52,978.571 5006.02,964.071 5024,947.5C 5031,957.5 5038,967.5 5045,977.5C 5045.98,978.759 5046.32,980.092 5046,981.5C 5004.88,1034.63 4953.38,1074.13 4891.5,1100C 4822.28,1124.01 4754.95,1119.35 4689.5,1086C 4622.8,1047.86 4578.63,991.69 4557,917.5C 4531.42,821.61 4540.76,729.277 4585,640.5C 4623.95,568.875 4681.12,517.708 4756.5,487C 4779.28,478.68 4802.61,473.513 4826.5,471.5 Z M 4796.5,525.5 C 4861.31,524.815 4904.15,555.148 4925,616.5C 4930.54,635.13 4932.54,654.13 4931,673.5C 4928.37,685.456 4920.87,691.622 4908.5,692C 4826.54,695.805 4744.54,697.305 4662.5,696.5C 4668.69,653.148 4684.52,613.814 4710,578.5C 4721.28,564.883 4734.11,553.05 4748.5,543C 4763.47,534.001 4779.47,528.167 4796.5,525.5 Z"/></g>
<g><path style="opacity:0.989" fill="#000000" d="M 5438.5,471.5 C 5527.58,470.439 5594.41,508.106 5639,584.5C 5659.5,621.985 5667.83,661.985 5664,704.5C 5662.8,718.014 5655.97,727.181 5643.5,732C 5630.01,735.062 5616.34,737.062 5602.5,738C 5490.65,747.121 5378.65,753.621 5266.5,757.5C 5265.18,804.917 5273.35,850.583 5291,894.5C 5321.93,963.05 5374.43,1003.88 5448.5,1017C 5494.37,1022.56 5537.37,1013.89 5577.5,991C 5598.52,978.571 5618.02,964.071 5636,947.5C 5643,957.5 5650,967.5 5657,977.5C 5657.98,978.759 5658.32,980.092 5658,981.5C 5616.88,1034.63 5565.38,1074.13 5503.5,1100C 5434.28,1124.01 5366.95,1119.35 5301.5,1086C 5234.8,1047.86 5190.63,991.69 5169,917.5C 5143.42,821.61 5152.76,729.277 5197,640.5C 5235.95,568.875 5293.12,517.708 5368.5,487C 5391.28,478.68 5414.61,473.513 5438.5,471.5 Z M 5408.5,525.5 C 5473.31,524.815 5516.15,555.148 5537,616.5C 5542.54,635.13 5544.54,654.13 5543,673.5C 5540.37,685.456 5532.87,691.622 5520.5,692C 5438.54,695.805 5356.54,697.305 5274.5,696.5C 5280.69,653.148 5296.52,613.814 5322,578.5C 5333.28,564.883 5346.11,553.05 5360.5,543C 5375.47,534.001 5391.47,528.167 5408.5,525.5 Z"/></g>
<g><path style="opacity:0.988" fill="#000000" d="M 6333.5,471.5 C 6384.36,471.108 6434.36,477.441 6483.5,490.5C 6489.68,541.958 6496.52,593.292 6504,644.5C 6490.66,648.544 6477.16,651.711 6463.5,654C 6456.43,631.792 6447.6,610.292 6437,589.5C 6407.49,536.326 6362.32,513.16 6301.5,520C 6270.54,526.3 6249.37,544.134 6238,573.5C 6223.44,622.826 6236.94,662.326 6278.5,692C 6291.31,700.795 6304.64,708.795 6318.5,716C 6358.53,734.182 6397.53,754.182 6435.5,776C 6459.34,790.163 6480.51,807.663 6499,828.5C 6520.45,856.023 6530.62,887.356 6529.5,922.5C 6527.57,994.216 6495.57,1047.72 6433.5,1083C 6381.41,1110.35 6326.07,1120.68 6267.5,1114C 6226.13,1110.07 6186.46,1099.74 6148.5,1083C 6144.42,1081.21 6140.59,1079.05 6137,1076.5C 6127.56,1022.43 6119.06,968.266 6111.5,914C 6125.35,910.747 6139.35,908.247 6153.5,906.5C 6163.29,946.411 6180.79,982.411 6206,1014.5C 6246.16,1058.89 6295.66,1075.05 6354.5,1063C 6394.1,1049.65 6415.93,1022.15 6420,980.5C 6422.2,942.743 6409.03,911.577 6380.5,887C 6363.85,873.364 6345.85,861.698 6326.5,852C 6286.93,833.889 6248.93,813.222 6212.5,790C 6139.68,740.559 6116.85,673.726 6144,589.5C 6163.47,544.692 6195.64,512.526 6240.5,493C 6270.4,480.524 6301.4,473.358 6333.5,471.5 Z"/></g>
<g><path style="opacity:0.978" fill="#000000" d="M 4208.5,1463.5 C 4214.18,1463.33 4219.84,1463.5 4225.5,1464C 4229.61,1472.45 4236.28,1477.45 4245.5,1479C 4346.5,1479.67 4447.5,1479.67 4548.5,1479C 4558.41,1477.71 4566.07,1472.88 4571.5,1464.5C 4577.46,1463.5 4583.46,1463.17 4589.5,1463.5C 4590.21,1504.62 4592.54,1545.62 4596.5,1586.5C 4590.44,1588.06 4584.28,1589.06 4578,1589.5C 4576.56,1589.44 4575.23,1589.11 4574,1588.5C 4568.15,1564.94 4558.82,1542.94 4546,1522.5C 4537.62,1513.23 4527.12,1508.73 4514.5,1509C 4485.5,1508.5 4456.5,1508.33 4427.5,1508.5C 4427.02,1631.52 4427.52,1754.52 4429,1877.5C 4430.5,1889 4436.33,1897.5 4446.5,1903C 4463.4,1908.42 4480.73,1911.25 4498.5,1911.5C 4498.5,1918.17 4498.5,1924.83 4498.5,1931.5C 4430.83,1931.5 4363.17,1931.5 4295.5,1931.5C 4295.5,1924.83 4295.5,1918.17 4295.5,1911.5C 4311.41,1911.05 4327.07,1908.89 4342.5,1905C 4355.18,1900.65 4362.35,1891.82 4364,1878.5C 4365.49,1755.19 4365.99,1631.86 4365.5,1508.5C 4338.16,1508.33 4310.83,1508.5 4283.5,1509C 4266.3,1509.01 4253.13,1516.18 4244,1530.5C 4234.36,1549.12 4226.36,1568.45 4220,1588.5C 4212.59,1589.48 4205.09,1589.81 4197.5,1589.5C 4202.05,1547.58 4205.72,1505.58 4208.5,1463.5 Z"/></g>
<g><path style="opacity:0.978" fill="#000000" d="M 1310.5,1469.5 C 1331.55,1469.76 1352.55,1470.93 1373.5,1473C 1399.6,1476.59 1425.6,1480.75 1451.5,1485.5C 1454.56,1521.15 1458.89,1556.65 1464.5,1592C 1464.25,1593.33 1463.58,1594.33 1462.5,1595C 1455.52,1596.66 1448.52,1598.16 1441.5,1599.5C 1436.18,1576.02 1426.35,1554.69 1412,1535.5C 1397.93,1520.04 1380.76,1509.54 1360.5,1504C 1316.02,1492.13 1272.36,1494.47 1229.5,1511C 1188.07,1530.77 1159.57,1562.27 1144,1605.5C 1129.37,1649.51 1125.37,1694.51 1132,1740.5C 1136.97,1786.14 1153.97,1826.47 1183,1861.5C 1217.77,1897.27 1260.27,1915.27 1310.5,1915.5C 1351.25,1916.36 1385.41,1902.03 1413,1872.5C 1427.99,1853.86 1440.99,1833.86 1452,1812.5C 1458.07,1814.86 1464.24,1817.03 1470.5,1819C 1471.52,1819.52 1472.18,1820.35 1472.5,1821.5C 1462.39,1857.17 1449.72,1891.84 1434.5,1925.5C 1392.62,1935.79 1350.12,1941.46 1307,1942.5C 1253.8,1943.49 1204.3,1930.66 1158.5,1904C 1100.82,1865.53 1067.32,1811.69 1058,1742.5C 1049.24,1674.53 1065.57,1613.53 1107,1559.5C 1149.16,1511.78 1201.99,1483.28 1265.5,1474C 1280.59,1471.82 1295.59,1470.32 1310.5,1469.5 Z"/></g>
<g><path style="opacity:0.98" fill="#000000" d="M 1757.5,1469.5 C 1758.12,1469.61 1758.62,1469.94 1759,1470.5C 1807.67,1603.17 1856.33,1735.83 1905,1868.5C 1909.8,1881.62 1917.63,1892.45 1928.5,1901C 1942.13,1907.27 1956.47,1910.77 1971.5,1911.5C 1971.5,1918.17 1971.5,1924.83 1971.5,1931.5C 1914.17,1931.5 1856.83,1931.5 1799.5,1931.5C 1799.5,1924.83 1799.5,1918.17 1799.5,1911.5C 1811.48,1910.47 1823.15,1907.97 1834.5,1904C 1840.53,1901.27 1843.87,1896.6 1844.5,1890C 1843.37,1882.98 1841.54,1876.15 1839,1869.5C 1826.27,1836.14 1814.43,1802.47 1803.5,1768.5C 1753.5,1768.17 1703.5,1768.5 1653.5,1769.5C 1640.04,1804.04 1627.87,1839.04 1617,1874.5C 1613.34,1888 1617.84,1897.5 1630.5,1903C 1644.53,1907.34 1658.87,1910.17 1673.5,1911.5C 1673.5,1918.17 1673.5,1924.83 1673.5,1931.5C 1619.83,1931.5 1566.17,1931.5 1512.5,1931.5C 1512.5,1924.83 1512.5,1918.17 1512.5,1911.5C 1526.85,1910.6 1540.51,1907.1 1553.5,1901C 1563.19,1893.98 1570.69,1885.15 1576,1874.5C 1583.78,1858.49 1590.78,1842.16 1597,1825.5C 1643.07,1708.46 1689.24,1591.46 1735.5,1474.5C 1742.96,1472.81 1750.29,1471.15 1757.5,1469.5 Z M 1729.5,1564.5 C 1730.79,1565.06 1731.62,1566.06 1732,1567.5C 1751.87,1624.28 1772.04,1680.95 1792.5,1737.5C 1749.84,1738.67 1707.17,1738.83 1664.5,1738C 1686.66,1680.35 1708.33,1622.52 1729.5,1564.5 Z"/></g>
<g><path style="opacity:0.978" fill="#000000" d="M 2655.5,1469.5 C 2676.55,1469.76 2697.55,1470.93 2718.5,1473C 2744.6,1476.59 2770.6,1480.75 2796.5,1485.5C 2799.56,1521.15 2803.89,1556.65 2809.5,1592C 2809.25,1593.33 2808.58,1594.33 2807.5,1595C 2800.52,1596.66 2793.52,1598.16 2786.5,1599.5C 2781.18,1576.02 2771.35,1554.69 2757,1535.5C 2742.93,1520.04 2725.76,1509.54 2705.5,1504C 2661.02,1492.13 2617.36,1494.47 2574.5,1511C 2533.07,1530.77 2504.57,1562.27 2489,1605.5C 2474.37,1649.51 2470.37,1694.51 2477,1740.5C 2481.97,1786.14 2498.97,1826.47 2528,1861.5C 2562.77,1897.27 2605.27,1915.27 2655.5,1915.5C 2696.25,1916.36 2730.41,1902.03 2758,1872.5C 2772.99,1853.86 2785.99,1833.86 2797,1812.5C 2803.07,1814.86 2809.24,1817.03 2815.5,1819C 2816.52,1819.52 2817.18,1820.35 2817.5,1821.5C 2807.39,1857.17 2794.72,1891.84 2779.5,1925.5C 2737.62,1935.79 2695.12,1941.46 2652,1942.5C 2598.8,1943.49 2549.3,1930.66 2503.5,1904C 2445.82,1865.53 2412.32,1811.69 2403,1742.5C 2394.24,1674.53 2410.57,1613.53 2452,1559.5C 2494.16,1511.78 2546.99,1483.28 2610.5,1474C 2625.59,1471.82 2640.59,1470.32 2655.5,1469.5 Z"/></g>
<g><path style="opacity:0.98" fill="#000000" d="M 4023.5,1469.5 C 4024.12,1469.61 4024.62,1469.94 4025,1470.5C 4073.67,1603.17 4122.33,1735.83 4171,1868.5C 4175.8,1881.62 4183.63,1892.45 4194.5,1901C 4208.13,1907.27 4222.47,1910.77 4237.5,1911.5C 4237.5,1918.17 4237.5,1924.83 4237.5,1931.5C 4180.17,1931.5 4122.83,1931.5 4065.5,1931.5C 4065.5,1924.83 4065.5,1918.17 4065.5,1911.5C 4077.48,1910.47 4089.15,1907.97 4100.5,1904C 4106.53,1901.27 4109.87,1896.6 4110.5,1890C 4109.37,1882.98 4107.54,1876.15 4105,1869.5C 4092.27,1836.14 4080.43,1802.47 4069.5,1768.5C 4019.5,1768.17 3969.5,1768.5 3919.5,1769.5C 3906.04,1804.04 3893.87,1839.04 3883,1874.5C 3879.34,1888 3883.84,1897.5 3896.5,1903C 3910.53,1907.34 3924.87,1910.17 3939.5,1911.5C 3939.5,1918.17 3939.5,1924.83 3939.5,1931.5C 3885.83,1931.5 3832.17,1931.5 3778.5,1931.5C 3778.5,1924.83 3778.5,1918.17 3778.5,1911.5C 3792.85,1910.6 3806.51,1907.1 3819.5,1901C 3829.19,1893.98 3836.69,1885.15 3842,1874.5C 3849.78,1858.49 3856.78,1842.16 3863,1825.5C 3909.07,1708.46 3955.24,1591.46 4001.5,1474.5C 4008.96,1472.81 4016.29,1471.15 4023.5,1469.5 Z M 3995.5,1564.5 C 3996.79,1565.06 3997.62,1566.06 3998,1567.5C 4017.87,1624.28 4038.04,1680.95 4058.5,1737.5C 4015.84,1738.67 3973.17,1738.83 3930.5,1738C 3952.66,1680.35 3974.33,1622.52 3995.5,1564.5 Z"/></g>
<g><path style="opacity:0.981" fill="#000000" d="M 4879.5,1469.5 C 4958.96,1468.55 5022.79,1499.22 5071,1561.5C 5099.95,1603.18 5114.11,1649.52 5113.5,1700.5C 5114.7,1766.42 5093.87,1824.09 5051,1873.5C 5005.13,1919.59 4949.46,1942.59 4884,1942.5C 4792.14,1941.1 4723.81,1900.77 4679,1821.5C 4647.66,1754.46 4644.66,1686.13 4670,1616.5C 4709.52,1524.48 4779.35,1475.48 4879.5,1469.5 Z M 4864.5,1496.5 C 4927.02,1495.5 4974.52,1521.5 5007,1574.5C 5031.47,1619.48 5042.97,1667.64 5041.5,1719C 5043.02,1763.09 5034.18,1804.92 5015,1844.5C 4984.4,1896.38 4938.9,1919.55 4878.5,1914C 4839.12,1908.56 4806.62,1890.73 4781,1860.5C 4750.23,1821.23 4732.57,1776.56 4728,1726.5C 4723.03,1682.85 4727.36,1640.19 4741,1598.5C 4753.41,1563.14 4775.24,1535.31 4806.5,1515C 4824.65,1504.67 4843.98,1498.51 4864.5,1496.5 Z"/></g>
<g><path style="opacity:0.981" fill="#000000" d="M 1999.5,1479.5 C 2061.83,1479.5 2124.17,1479.5 2186.5,1479.5C 2186.5,1486.5 2186.5,1493.5 2186.5,1500.5C 2169.84,1500.57 2153.84,1503.73 2138.5,1510C 2130.25,1515.99 2125.75,1524.16 2125,1534.5C 2123.35,1646.48 2123.02,1758.48 2124,1870.5C 2123.66,1884.03 2129.5,1893.53 2141.5,1899C 2146.71,1900.64 2152.04,1901.64 2157.5,1902C 2178,1902.39 2198.5,1902.89 2219,1903.5C 2233.05,1903.78 2246.89,1902.28 2260.5,1899C 2264.96,1896.94 2269.29,1894.6 2273.5,1892C 2297.51,1869.16 2314.84,1841.99 2325.5,1810.5C 2332.58,1811.52 2339.58,1813.02 2346.5,1815C 2347.58,1815.67 2348.25,1816.67 2348.5,1818C 2339.28,1856.16 2328.95,1893.99 2317.5,1931.5C 2209.17,1931.5 2100.83,1931.5 1992.5,1931.5C 1992.5,1924.83 1992.5,1918.17 1992.5,1911.5C 2005.94,1910.49 2019.27,1908.65 2032.5,1906C 2052.08,1901.4 2061.58,1888.9 2061,1868.5C 2061.98,1757.15 2061.65,1645.81 2060,1534.5C 2057.87,1516.37 2047.71,1506.21 2029.5,1504C 2019.57,1502.18 2009.57,1501.01 1999.5,1500.5C 1999.5,1493.5 1999.5,1486.5 1999.5,1479.5 Z"/></g>
<g><path style="opacity:0.98" fill="#000000" d="M 2879.5,1479.5 C 2940.5,1479.5 3001.5,1479.5 3062.5,1479.5C 3062.5,1486.5 3062.5,1493.5 3062.5,1500.5C 3053.09,1500.49 3043.76,1501.32 3034.5,1503C 3017.21,1504.96 3007.04,1514.46 3004,1531.5C 3002.96,1538.13 3002.29,1544.79 3002,1551.5C 3001.33,1620.17 3001.33,1688.83 3002,1757.5C 3002.35,1794.58 3013.01,1828.25 3034,1858.5C 3052.8,1880.65 3076.63,1894.15 3105.5,1899C 3198.1,1911.38 3249.27,1871.21 3259,1778.5C 3259.86,1770.52 3260.52,1762.52 3261,1754.5C 3261.67,1701.17 3261.67,1647.83 3261,1594.5C 3260.62,1573.38 3258.95,1552.38 3256,1531.5C 3252.32,1520.49 3245.15,1512.65 3234.5,1508C 3219.61,1502.8 3204.28,1500.3 3188.5,1500.5C 3188.5,1493.5 3188.5,1486.5 3188.5,1479.5C 3244.5,1479.5 3300.5,1479.5 3356.5,1479.5C 3356.5,1486.5 3356.5,1493.5 3356.5,1500.5C 3341.89,1500.43 3327.89,1503.27 3314.5,1509C 3305.12,1514.58 3299.29,1522.74 3297,1533.5C 3295.15,1551.78 3294.15,1570.11 3294,1588.5C 3293.67,1643.5 3293.33,1698.5 3293,1753.5C 3292.94,1786.52 3287.27,1818.52 3276,1849.5C 3255.77,1897.72 3219.94,1926.89 3168.5,1937C 3123.01,1945.5 3078.34,1942.5 3034.5,1928C 2986.6,1907.09 2957.44,1870.92 2947,1819.5C 2943.93,1804.64 2941.93,1789.64 2941,1774.5C 2940.67,1700.5 2940.33,1626.5 2940,1552.5C 2940.26,1540.27 2937.92,1528.6 2933,1517.5C 2927.51,1509.83 2920.01,1505.33 2910.5,1504C 2900.26,1501.99 2889.92,1500.82 2879.5,1500.5C 2879.5,1493.5 2879.5,1486.5 2879.5,1479.5 Z"/></g>
<g><path style="opacity:0.981" fill="#000000" d="M 3394.5,1479.5 C 3456.83,1479.5 3519.17,1479.5 3581.5,1479.5C 3581.5,1486.5 3581.5,1493.5 3581.5,1500.5C 3564.84,1500.57 3548.84,1503.73 3533.5,1510C 3525.25,1515.99 3520.75,1524.16 3520,1534.5C 3518.35,1646.48 3518.02,1758.48 3519,1870.5C 3518.66,1884.03 3524.5,1893.53 3536.5,1899C 3541.71,1900.64 3547.04,1901.64 3552.5,1902C 3573,1902.39 3593.5,1902.89 3614,1903.5C 3628.05,1903.78 3641.89,1902.28 3655.5,1899C 3659.96,1896.94 3664.29,1894.6 3668.5,1892C 3692.51,1869.16 3709.84,1841.99 3720.5,1810.5C 3727.58,1811.52 3734.58,1813.02 3741.5,1815C 3742.58,1815.67 3743.25,1816.67 3743.5,1818C 3734.28,1856.16 3723.95,1893.99 3712.5,1931.5C 3604.17,1931.5 3495.83,1931.5 3387.5,1931.5C 3387.5,1924.83 3387.5,1918.17 3387.5,1911.5C 3400.94,1910.49 3414.27,1908.65 3427.5,1906C 3447.08,1901.4 3456.58,1888.9 3456,1868.5C 3456.98,1757.15 3456.65,1645.81 3455,1534.5C 3452.87,1516.37 3442.71,1506.21 3424.5,1504C 3414.57,1502.18 3404.57,1501.01 3394.5,1500.5C 3394.5,1493.5 3394.5,1486.5 3394.5,1479.5 Z"/></g>
<g><path style="opacity:0.982" fill="#000000" d="M 5179.5,1479.5 C 5245.5,1479.33 5311.5,1479.5 5377.5,1480C 5407.82,1479.8 5436.49,1486.46 5463.5,1500C 5491.58,1516.64 5508.42,1541.14 5514,1573.5C 5521.52,1629.95 5501.02,1672.78 5452.5,1702C 5444.11,1706.86 5435.45,1711.19 5426.5,1715C 5459.41,1771.34 5495.91,1825.18 5536,1876.5C 5548.13,1891.3 5562.63,1903.13 5579.5,1912C 5584.3,1914.21 5589.3,1915.71 5594.5,1916.5C 5593.83,1923.5 5593.17,1930.5 5592.5,1937.5C 5572.68,1937.26 5553.02,1935.43 5533.5,1932C 5508.04,1926.19 5486.87,1913.36 5470,1893.5C 5455.02,1874.2 5441.02,1854.2 5428,1833.5C 5411.58,1806.33 5394.92,1779.33 5378,1752.5C 5371.36,1743.6 5362.53,1738.43 5351.5,1737C 5335.2,1735.63 5318.87,1735.13 5302.5,1735.5C 5302.33,1778.5 5302.5,1821.5 5303,1864.5C 5302.9,1876.09 5305.9,1886.76 5312,1896.5C 5319.27,1902.88 5327.77,1906.71 5337.5,1908C 5346.8,1909.5 5356.13,1910.66 5365.5,1911.5C 5365.5,1918.17 5365.5,1924.83 5365.5,1931.5C 5303.5,1931.5 5241.5,1931.5 5179.5,1931.5C 5179.5,1924.83 5179.5,1918.17 5179.5,1911.5C 5194.87,1910.6 5209.87,1907.77 5224.5,1903C 5231.12,1899.71 5235.62,1894.54 5238,1887.5C 5239.52,1881.92 5240.52,1876.26 5241,1870.5C 5241.67,1761.5 5241.67,1652.5 5241,1543.5C 5240.92,1532.85 5237.92,1523.18 5232,1514.5C 5223.4,1507.74 5213.57,1503.91 5202.5,1503C 5194.87,1501.75 5187.2,1500.92 5179.5,1500.5C 5179.5,1493.5 5179.5,1486.5 5179.5,1479.5 Z M 5341.5,1504.5 C 5367.61,1503.53 5391.61,1510.03 5413.5,1524C 5431.68,1538.18 5442.85,1556.68 5447,1579.5C 5451.7,1604.72 5449.7,1629.39 5441,1653.5C 5423.95,1688.12 5396.12,1706.95 5357.5,1710C 5339.17,1710.5 5320.84,1710.67 5302.5,1710.5C 5302.03,1647.81 5302.53,1585.14 5304,1522.5C 5305.67,1516.16 5309.51,1511.66 5315.5,1509C 5324.14,1506.52 5332.81,1505.02 5341.5,1504.5 Z"/></g>
<g><path style="opacity:0.99" fill="#000000" d="M -0.5,1752.5 C 329.833,1752.5 660.167,1752.5 990.5,1752.5C 989.271,1766.57 987.604,1780.57 985.5,1794.5C 656.834,1795.5 328.167,1795.83 -0.5,1795.5C -0.5,1781.17 -0.5,1766.83 -0.5,1752.5 Z"/></g>
<g><path style="opacity:0.99" fill="#000000" d="M 6599.5,1752.5 C 6599.5,1766.83 6599.5,1781.17 6599.5,1795.5C 6269.17,1795.5 5938.83,1795.5 5608.5,1795.5C 5609.69,1781.15 5611.02,1766.82 5612.5,1752.5C 5941.5,1752.5 6270.5,1752.5 6599.5,1752.5 Z"/></g>
</svg>
