<?xml version="1.0" encoding="UTF-8"?>
<!DOCTYPE svg PUBLIC "-//W3C//DTD SVG 1.1//EN" "http://www.w3.org/Graphics/SVG/1.1/DTD/svg11.dtd">
<svg xmlns="http://www.w3.org/2000/svg" version="1.1" width="2800px" height="2000px" style="shape-rendering:geometricPrecision; text-rendering:geometricPrecision; image-rendering:optimizeQuality; fill-rule:evenodd; clip-rule:evenodd" xmlns:xlink="http://www.w3.org/1999/xlink">
<g><path style="opacity:0.989" fill="#000000" d="M 913.5,148.5 C 975.944,147.996 1037.94,152.996 1099.5,163.5C 1131.2,169.061 1162.86,174.727 1194.5,180.5C 1201.28,253.11 1210.28,325.443 1221.5,397.5C 1206.53,400.628 1191.53,403.628 1176.5,406.5C 1167.26,370.593 1153.42,336.593 1135,304.5C 1106.36,259.063 1065.86,229.563 1013.5,216C 952.799,200.221 891.466,197.221 829.5,207C 717.057,227.958 637.223,290.458 590,394.5C 566.156,450.713 553.156,509.379 551,570.5C 546.914,649.15 557.248,725.817 582,800.5C 638.657,954.779 749.324,1034.45 914,1039.5C 958.056,1040.09 1000.22,1031.59 1040.5,1014C 1070.66,999.192 1096.83,979.026 1119,953.5C 1133.31,936.213 1146.64,918.213 1159,899.5C 1172.09,878.321 1184.43,856.654 1196,834.5C 1209.08,839.192 1222.24,843.692 1235.5,848C 1236.52,848.519 1237.18,849.353 1237.5,850.5C 1216.6,921.701 1191.27,991.201 1161.5,1059C 1095.01,1074.86 1027.68,1085.53 959.5,1091C 880.423,1097.26 802.756,1089.59 726.5,1068C 599.28,1029.43 506.446,950.597 448,831.5C 405.688,734.392 394.355,633.726 414,529.5C 448.463,371.05 539.963,259.55 688.5,195C 760.778,165.845 835.778,150.345 913.5,148.5 Z"/></g>
<g><path style="opacity:0.992" fill="#000000" d="M 1682.5,168.5 C 1814.5,168.333 1946.5,168.5 2078.5,169C 2121.78,169.802 2164.12,176.468 2205.5,189C 2303.14,224.859 2352.8,295.026 2354.5,399.5C 2354.04,473.575 2325.71,534.408 2269.5,582C 2240.76,605.046 2209.43,624.046 2175.5,639C 2229.56,728.305 2286.72,815.471 2347,900.5C 2371.2,934.385 2398.04,966.218 2427.5,996C 2451.84,1018.42 2480,1034.26 2512,1043.5C 2510.65,1056.81 2509.15,1070.15 2507.5,1083.5C 2468.54,1082.53 2429.87,1078.7 2391.5,1072C 2343.17,1061.76 2302.67,1038.26 2270,1001.5C 2258.29,987.454 2246.95,973.121 2236,958.5C 2217.59,932.684 2199.92,906.351 2183,879.5C 2149.17,823.831 2114.83,768.498 2080,713.5C 2065.05,693.939 2045.22,683.106 2020.5,681C 1989.54,678.903 1958.54,678.07 1927.5,678.5C 1927.33,754.834 1927.5,831.167 1928,907.5C 1927.52,931.462 1929.86,955.129 1935,978.5C 1942.11,1001.27 1957.27,1015.44 1980.5,1021C 2004.55,1026.53 2028.88,1030.2 2053.5,1032C 2054.49,1045.09 2054.82,1058.25 2054.5,1071.5C 1930.5,1071.5 1806.5,1071.5 1682.5,1071.5C 1682.18,1058.25 1682.51,1045.09 1683.5,1032C 1703.27,1030.07 1722.94,1027.4 1742.5,1024C 1781,1019.5 1801.83,998.003 1805,959.5C 1805.96,950.189 1806.63,940.855 1807,931.5C 1807.67,724.833 1807.67,518.167 1807,311.5C 1806.77,293.874 1804.44,276.541 1800,259.5C 1795.41,243.483 1785.58,231.983 1770.5,225C 1758.85,220.421 1746.85,217.088 1734.5,215C 1717.24,212.176 1699.91,210.009 1682.5,208.5C 1682.5,195.167 1682.5,181.833 1682.5,168.5 Z M 2006.5,217.5 C 2041.14,216.472 2074.81,221.639 2107.5,233C 2167.06,256.565 2203.56,299.732 2217,362.5C 2225.14,406.054 2224.14,449.388 2214,492.5C 2204.15,528.051 2185.31,557.884 2157.5,582C 2136.94,600.451 2113.27,613.451 2086.5,621C 2065.8,626.053 2044.8,629.053 2023.5,630C 1991.5,630.5 1959.5,630.667 1927.5,630.5C 1927.33,515.166 1927.5,399.833 1928,284.5C 1927.56,270 1929.89,256 1935,242.5C 1942.98,230.747 1954.15,223.913 1968.5,222C 1981.23,219.79 1993.9,218.29 2006.5,217.5 Z"/></g>
<g><path style="opacity:0.978" fill="#000000" d="M 1453.5,1442.5 C 1474.55,1442.76 1495.55,1443.93 1516.5,1446C 1542.6,1449.59 1568.6,1453.75 1594.5,1458.5C 1597.56,1494.15 1601.89,1529.65 1607.5,1565C 1607.25,1566.33 1606.58,1567.33 1605.5,1568C 1598.52,1569.66 1591.52,1571.16 1584.5,1572.5C 1579.18,1549.02 1569.35,1527.69 1555,1508.5C 1540.93,1493.04 1523.76,1482.54 1503.5,1477C 1459.02,1465.13 1415.36,1467.47 1372.5,1484C 1331.07,1503.77 1302.57,1535.27 1287,1578.5C 1272.37,1622.51 1268.37,1667.51 1275,1713.5C 1279.97,1759.14 1296.97,1799.47 1326,1834.5C 1360.77,1870.27 1403.27,1888.27 1453.5,1888.5C 1494.25,1889.36 1528.41,1875.03 1556,1845.5C 1570.99,1826.86 1583.99,1806.86 1595,1785.5C 1601.07,1787.86 1607.24,1790.03 1613.5,1792C 1614.52,1792.52 1615.18,1793.35 1615.5,1794.5C 1605.39,1830.17 1592.72,1864.84 1577.5,1898.5C 1535.62,1908.79 1493.12,1914.46 1450,1915.5C 1396.8,1916.49 1347.3,1903.66 1301.5,1877C 1243.82,1838.53 1210.32,1784.69 1201,1715.5C 1192.24,1647.53 1208.57,1586.53 1250,1532.5C 1292.16,1484.78 1344.99,1456.28 1408.5,1447C 1423.59,1444.82 1438.59,1443.32 1453.5,1442.5 Z"/></g>
<g><path style="opacity:0.99" fill="#000000" d="M 358.5,1725.5 C 616.833,1725.5 875.167,1725.5 1133.5,1725.5C 1132.27,1739.57 1130.6,1753.57 1128.5,1767.5C 871.834,1768.5 615.168,1768.83 358.5,1768.5C 358.5,1754.17 358.5,1739.83 358.5,1725.5 Z"/></g>
<g><path style="opacity:0.99" fill="#000000" d="M 1683.5,1725.5 C 1975.17,1725.5 2266.83,1725.5 2558.5,1725.5C 2558.5,1739.83 2558.5,1754.17 2558.5,1768.5C 2265.5,1768.5 1972.5,1768.5 1679.5,1768.5C 1680.69,1754.15 1682.02,1739.82 1683.5,1725.5 Z"/></g>
</svg>
