<svg version="1.1" xmlns="http://www.w3.org/2000/svg" xmlns:xlink="http://www.w3.org/1999/xlink" width="1920.000000pt" height="1399.000000pt" viewBox="0,0,256,186.53125"><g fill="#2f3982" fill-rule="nonzero" stroke="none" stroke-width="1" stroke-linecap="butt" stroke-linejoin="miter" stroke-miterlimit="10" stroke-dasharray="" stroke-dashoffset="0" font-family="none" font-weight="none" font-size="none" text-anchor="none" style="mix-blend-mode: normal"><g transform="translate(-0.05997,0.00462) scale(0.13333,0.13333)"><g transform="translate(0,1399) scale(0.1,-0.1)"><path d="M7954,13893c-28,-49 -201,-348 -384,-665l-333,-578h-86c-170,0 -599,-35 -805,-66c-94,-14 -101,-14 -117,3c-9,10 -200,259 -424,553c-225,294 -425,556 -445,581l-36,47l-410,-149c-225,-82 -620,-227 -879,-321c-258,-94 -471,-172 -472,-173c-2,-1 13,-330 33,-731c19,-401 34,-751 32,-779l-3,-49l-110,-76c-249,-169 -510,-372 -687,-532c-53,-49 -102,-88 -110,-88c-7,0 -332,106 -722,236c-688,230 -709,236 -726,218c-24,-26 -490,-674 -493,-685c-2,-11 47,-30 1825,-732l568,-224l187,186c346,343 671,597 1077,843c156,94 584,307 749,373c560,222 1108,350 1697,396c190,15 648,15 825,0c994,-85 1893,-406 2722,-973c546,-373 1088,-926 1458,-1487c218,-332 449,-784 565,-1108l23,-63h1283c1022,0 1282,3 1279,13c-2,6 -41,183 -85,392c-45,209 -82,381 -84,382c-1,2 -338,32 -747,68c-409,36 -753,68 -765,70c-15,3 -38,40 -86,138c-82,167 -248,465 -346,622c-41,66 -75,125 -75,130c0,6 83,168 185,360c233,439 470,890 492,933l17,33l-662,664l-661,664l-112,-59c-458,-240 -1250,-650 -1257,-650c-5,0 -32,15 -61,34c-158,100 -495,282 -679,366c-74,34 -137,65 -141,69c-4,3 -35,342 -69,751c-34,410 -62,746 -64,748c-4,4 -1798,402 -1815,402c-9,0 -37,-38 -66,-87z"></path><path d="M6930,13169c-237,-9 -507,-32 -700,-60c-74,-10 -138,-19 -142,-19c-11,0 223,-301 238,-307c8,-3 105,4 216,16c112,12 289,26 394,33l192,11l93,160c52,88 96,163 97,168c4,10 -89,10 -388,-2z"></path><path d="M3265,12004c-285,-184 -560,-396 -857,-658c-75,-67 -134,-124 -130,-127c8,-8 385,-129 401,-129c6,0 48,33 93,73c115,102 346,282 520,406l147,104l-6,121c-3,67 -8,163 -12,214l-6,92z"></path><path d="M7025,11299c-956,-41 -1922,-357 -2725,-892c-371,-247 -800,-624 -1042,-915l-27,-33l-298,116c-412,160 -1557,607 -1563,611c-3,1 -50,-63 -104,-142c-663,-970 -1076,-2078 -1215,-3259c-32,-268 -43,-477 -43,-800c-1,-1023 197,-1958 624,-2950c50,-117 123,-272 133,-283c1,-1 168,58 371,132c702,255 1769,645 1796,655l28,10l-94,183c-270,524 -440,1060 -511,1608c-81,632 -43,1242 117,1860c191,742 571,1455 1080,2025c294,329 574,573 958,831c611,412 1374,689 2144,779c401,48 908,35 1324,-31c257,-41 668,-145 842,-214c29,-11 54,-19 56,-17c3,2 -39,126 -92,275l-97,271l-126,30c-527,125 -1013,173 -1536,150z"></path><path d="M5975,10510c-398,-114 -649,-213 -983,-389c-175,-93 -217,-117 -370,-217c-394,-257 -771,-598 -1064,-964c-640,-797 -1006,-1766 -1047,-2770c-35,-891 173,-1737 627,-2540c36,-63 74,-128 85,-143c11,-16 16,-32 11,-37c-5,-4 -265,-101 -579,-215c-313,-113 -574,-210 -578,-215c-12,-11 63,-139 221,-380c279,-423 570,-766 942,-1109c644,-593 1446,-1055 2285,-1316c279,-87 645,-172 867,-201c44,-6 47,-5 52,17c3,13 31,150 61,304c150,771 227,1161 231,1176c3,12 -24,20 -158,42c-979,164 -1891,659 -2551,1383c-69,77 -160,182 -202,234c-463,578 -797,1334 -909,2058c-50,319 -51,336 -51,697c0,428 21,633 102,990c201,896 707,1756 1378,2344c550,482 1054,756 1785,971c41,12 78,25 82,28c7,7 -87,272 -100,283c-4,3 -65,-11 -137,-31z"></path><path d="M7910,7143c-137,-8 -337,-48 -467,-94c-182,-64 -307,-141 -404,-248c-157,-171 -223,-359 -222,-631c2,-482 276,-770 829,-872c116,-21 146,-22 1164,-27c981,-6 1048,-7 1095,-25c93,-34 134,-96 135,-201c0,-104 -50,-173 -149,-207c-28,-10 -321,-13 -1298,-16l-1262,-2l-54,-68c-77,-97 -552,-715 -561,-730c-6,-10 299,-12 1621,-9c1419,3 1639,6 1713,19c510,94 792,309 885,673c45,178 55,338 30,493c-55,336 -256,540 -631,637c-219,57 -232,58 -1364,64l-1045,6l-50,23c-27,12 -58,30 -69,40c-48,43 -72,164 -44,229c22,53 70,93 138,116l65,22l1156,3l1157,3l66,87c36,48 105,139 153,202c49,63 153,201 232,305c79,105 148,196 154,203c8,9 -285,12 -1454,10c-805,-1 -1489,-3 -1519,-5z"></path><path d="M11148,6747l-307,-402l732,-5l732,-5l3,-1162l2,-1163h485h485l2,1163l3,1162l562,3l562,2l298,387c164,213 304,395 311,405c13,17 -49,18 -1775,17h-1788z"></path><path d="M15475,6933c-93,-119 -236,-301 -317,-404l-147,-188l1412,-4c1121,-3 1422,-6 1462,-17c129,-33 224,-101 273,-195c23,-44 26,-62 26,-145c1,-78 -4,-104 -22,-145c-27,-59 -104,-134 -169,-166c-114,-55 -42,-53 -1570,-56l-1413,-4v-799v-800h480h480v400v400h863c511,0 919,4 1002,11c512,38 940,238 1145,534c142,207 207,464 181,724c-39,399 -242,691 -608,875c-176,89 -305,130 -528,169c-116,20 -154,21 -1250,24l-1130,3z"></path><path d="M11630,2927c-146,-314 -273,-589 -282,-610l-17,-38l101,3l101,3l65,148l65,147h236h236l64,-150l64,-150h99c54,0 98,3 98,6c0,7 -517,1120 -549,1181l-16,32zM11918,3087c6,-23 41,-109 77,-190c36,-81 65,-149 65,-152c0,-3 -72,-5 -160,-5c-88,0 -160,3 -160,6c0,3 31,77 70,163c38,86 73,171 76,189c9,44 20,40 32,-11z"></path><path d="M15760,3213c-73,-159 -198,-427 -278,-598c-79,-170 -146,-316 -149,-322c-4,-10 19,-13 95,-13h99l66,148l66,147h238h237l62,-145l63,-145l102,-3c79,-2 100,0 96,10c-7,18 -559,1202 -562,1206c-1,1 -62,-127 -135,-285zM15919,3076c11,-35 48,-124 81,-196c33,-73 60,-134 60,-136c0,-2 -72,-4 -160,-4c-88,0 -160,4 -160,9c0,5 31,78 69,163c38,84 72,170 76,191c4,20 9,37 10,37c2,0 13,-29 24,-64z"></path><path d="M7152,3460c-172,-46 -309,-154 -381,-301c-53,-109 -71,-183 -71,-294c0,-113 20,-197 71,-303c91,-187 270,-294 519,-309c187,-11 347,42 456,151c51,51 64,72 82,131c25,78 41,189 42,283v62h-235h-235v-80v-80h145c145,0 145,0 145,-23c0,-42 -29,-123 -59,-164c-59,-81 -233,-135 -365,-113c-122,20 -252,106 -310,204c-105,179 -71,434 76,572c152,142 407,149 560,15c20,-17 39,-31 43,-31c5,0 105,72 135,98c7,6 -75,76 -132,113c-124,80 -335,110 -486,69z"></path><path d="M9402,3460c-235,-62 -413,-249 -457,-483c-19,-99 -19,-129 0,-225c45,-226 215,-410 440,-478c44,-13 93,-18 180,-18c105,0 130,3 200,28c279,97 438,328 422,611c-20,340 -286,586 -632,584c-45,0 -112,-8 -153,-19zM9701,3284c125,-49 233,-162 270,-285c17,-56 21,-89 17,-163c-3,-80 -8,-102 -37,-160c-132,-269 -458,-334 -673,-136c-188,172 -197,440 -20,631c94,102 191,142 323,134c42,-2 96,-12 120,-21z"></path><path d="M14612,3460c-107,-28 -187,-75 -268,-155c-84,-83 -137,-173 -164,-280c-38,-149 -19,-334 47,-458c44,-84 164,-195 263,-245c113,-57 206,-76 335,-68c104,6 191,28 277,72l48,24v105c0,58 -3,105 -6,105c-3,0 -24,-13 -47,-29c-146,-99 -285,-131 -422,-96c-130,34 -210,103 -274,235c-35,73 -36,78 -36,195c0,118 1,122 37,197c46,97 104,160 183,199c157,77 358,56 521,-55c20,-14 41,-23 46,-20c4,3 8,45 8,94v88l-82,41c-46,22 -112,47 -148,56c-89,20 -228,18 -318,-5z"></path><path d="M8120,2870v-590h310h310v85v85h-215h-215v505v505h-95h-95z"></path><path d="M10430,2869v-590l258,3c288,5 316,10 391,75c66,56 94,121 99,230c4,86 2,96 -26,155c-37,78 -71,114 -134,143c-43,20 -47,24 -29,30c37,11 81,56 109,109c23,44 27,63 27,136c0,97 -20,153 -76,208c-75,76 -149,92 -431,92h-188zM10785,3289c117,-21 155,-62 155,-164c0,-76 -15,-104 -70,-135c-38,-20 -62,-25 -147,-28l-103,-4v171v171h53c29,0 80,-5 112,-11zM10800,2809c82,-13 147,-43 164,-78c36,-69 31,-171 -10,-220c-36,-43 -117,-70 -234,-77l-100,-7v196v197h58c31,0 86,-5 122,-11z"></path><path d="M12667,3453c-4,-3 -7,-269 -7,-590v-583h310h310v85v85h-215h-215v505v505h-88c-49,0 -92,-3 -95,-7z"></path><path d="M16670,2870v-590h225c238,0 301,8 376,46c205,103 195,473 -15,560l-43,18l46,30c128,86 147,298 38,422c-77,87 -145,103 -439,104h-188zM17085,3273c68,-25 95,-66 95,-145c0,-119 -52,-159 -217,-166l-103,-4v172v173l88,-6c48,-3 109,-14 137,-24zM17106,2795c94,-32 132,-97 119,-202c-13,-103 -87,-148 -265,-159l-100,-7v198v198l98,-6c54,-3 120,-13 148,-22z"></path><path d="M17670,2870v-590h310h310v85v85h-215h-215v505v505h-95h-95z"></path><path d="M18540,2870v-590h330h330v85v85h-235h-235v190v190h235h236l-3,83l-3,82l-232,3l-233,2v145v145l233,2l232,3v80v80l-327,3l-328,2z"></path></g></g></g></svg>